<?xml version="1.0" encoding="UTF-8" standalone="no"?>
<!-- Created with Inkscape (http://www.inkscape.org/) -->

<svg
   xmlns:dc="http://purl.org/dc/elements/1.1/"
   xmlns:cc="http://creativecommons.org/ns#"
   xmlns:rdf="http://www.w3.org/1999/02/22-rdf-syntax-ns#"
   xmlns:svg="http://www.w3.org/2000/svg"
   xmlns="http://www.w3.org/2000/svg"
   xmlns:sodipodi="http://sodipodi.sourceforge.net/DTD/sodipodi-0.dtd"
   xmlns:inkscape="http://www.inkscape.org/namespaces/inkscape"
   width="210mm"
   height="297mm"
   viewBox="0 0 744.09448819 1052.3622047"
   id="svg2"
   version="1.1"
   inkscape:version="0.91 r13725"
   sodipodi:docname="drawing.svg">
  <defs
     id="defs4" />
  <sodipodi:namedview
     id="base"
     pagecolor="#ffffff"
     bordercolor="#666666"
     borderopacity="1.0"
     inkscape:pageopacity="0.0"
     inkscape:pageshadow="2"
     inkscape:zoom="0.35"
     inkscape:cx="375"
     inkscape:cy="520"
     inkscape:document-units="px"
     inkscape:current-layer="layer1"
     showgrid="false"
     inkscape:window-width="1366"
     inkscape:window-height="691"
     inkscape:window-x="0"
     inkscape:window-y="24"
     inkscape:window-maximized="1" />
  <metadata
     id="metadata7">
    <rdf:RDF>
      <cc:Work
         rdf:about="">
        <dc:format>image/svg+xml</dc:format>
        <dc:type
           rdf:resource="http://purl.org/dc/dcmitype/StillImage" />
        <dc:title></dc:title>
      </cc:Work>
    </rdf:RDF>
  </metadata>
  <g
     inkscape:label="Layer 1"
     inkscape:groupmode="layer"
     id="layer1">
    <path
       style="opacity:0.31100015"
       id="path3336"
       d="m 167.45002,173.70686 c -0.69048,15.71507 -0.66435,31.45453 -0.56324,47.1814 0.50088,13.22605 0.0426,26.37748 -2.09335,39.43735 -3.00203,12.50191 -7.94475,24.39169 -11.3502,36.78532 -2.0321,7.1651 -4.10532,14.32065 -5.31134,21.6784 -0.38722,2.27106 -0.59385,4.56146 -0.61541,6.86399 0.30165,2.87915 -0.0829,4.80454 -1.92812,7.124 -4.10905,5.44349 -8.67971,10.51448 -13.29488,15.52826 -3.56514,3.93257 -7.27148,7.72913 -11.14743,11.35478 -4.15097,3.49972 -8.43559,6.83341 -12.53782,10.39158 -1.05962,-0.65232 -2.4244,3.75803 -2.91352,3.06822 -1.03601,-1.46109 -0.67518,-5.49749 -2.34007,-4.83702 -25.06397,9.9431 -46.498614,29.82197 -33.505905,17.9535 4.824832,-4.36688 9.962319,-8.37907 14.820197,-12.7033 2.635802,-1.87813 4.809652,-4.43709 7.388417,-6.3127 1.028114,-1.20546 2.433314,-2.13774 2.917501,-3.65849 0.431926,-1.56326 0.363046,-3.20445 0.340108,-4.81185 -0.321412,-7.46921 2.771374,-14.52298 5.189932,-21.43485 4.82462,-13.08861 10.07741,-26.02272 14.75438,-39.16547 1.23171,-3.99683 3.34184,-7.62573 5.00985,-11.42524 0.60225,-1.23736 0.72165,-2.49007 0.78045,-3.84073 -0.0135,-1.83238 -0.0311,-3.66318 -0.12191,-5.49354 0.0862,-0.34984 0.0871,-0.73256 0.25846,-1.04953 0.2597,-0.48052 0.78344,-0.77522 1.07341,-1.23811 0.55578,-0.8872 0.61047,-1.81464 1.20606,-2.69697 16.87524,-11.28161 25.5586,-23.0923 41.98537,-21.27304 4.51048,1.1881 9.0795,3.71332 13.20342,6.0346 5.21179,3.04238 11.00372,4.45316 16.90249,5.37299 2.71982,0.33086 5.45715,0.31481 8.1889,0.20907 3.85905,-0.0324 7.72498,0.0545 11.58726,0.0616 2.84882,0.37687 4.8381,-0.44654 7.21467,-1.78833 0.66999,-0.37827 2.70928,-1.45921 2.04154,-1.07698 -35.93594,20.57091 -45.44929,27.07476 -33.01963,18.65141 2.17681,-1.36744 3.35327,-3.84967 5.37117,-5.35385 1.39384,-2.52521 1.66996,-5.42333 2.64839,-8.16536 7.06069,-16.08582 13.76129,-32.31791 20.25691,-48.63941 2.59968,-7.38419 5.71068,-14.56944 8.57301,-21.85197 0.55383,-1.69047 1.12828,-3.39211 1.20829,-5.17778 0.05,-1.58051 -0.0177,-3.16228 -0.0433,-4.74313 -0.36751,-14.55895 -0.3344,-4.55134 37.91729,-18.13738 1.26205,-0.44825 -0.1374,2.67515 -0.18579,4.01357 -0.0712,1.96933 -0.0853,3.94066 -0.17299,5.90933 -0.18139,4.07072 -0.65068,10.85036 -0.91552,14.86946 -0.76449,10.99851 -1.23483,22.01226 -1.58501,33.03051 -0.01,7.68616 -1.33892,15.28455 -2.13384,22.91234 -0.39342,4.29251 -0.62969,8.60427 -0.64977,12.91536 -0.0394,2.47437 -0.0564,4.94978 -0.0355,7.4245 0.44182,2.64772 -0.77237,4.70123 -1.73097,6.99983 -1.48032,4.92808 -2.23854,10.09077 -3.22102,15.14598 -1.5707,6.6023 -2.64659,13.28808 -3.2971,20.03847 -0.0154,5.43081 -1.27153,10.6406 -2.81045,15.81022 -1.52615,5.27795 -2.95019,10.70373 -5.50359,15.596 -1.51972,3.18263 -3.42957,6.14402 -4.89536,9.34825 -1.537,2.516 -2.94518,5.02561 -4.67333,7.39825 -0.73458,1.07748 -0.3947,0.56755 -1.02326,1.52737 0,0 -39.07283,17.19412 -39.07283,17.19412 l 0,0 c 0.65578,-1.05767 0.30469,-0.49602 1.05496,-1.6839 0.50335,-0.7897 0.85746,-1.69383 1.49878,-2.37624 0.27708,-0.29484 0.76202,-0.34856 1.01682,-0.66285 0.98689,-1.21732 0.91318,-3.2206 2.36755,-4.15522 2.1309,-2.7652 3.07352,-6.31062 5.01205,-9.22614 0.69183,-1.23202 1.61628,-2.32986 2.248,-3.59375 1.75235,-3.50593 2.5915,-7.5728 3.87548,-11.2477 1.30725,-4.98352 3.10466,-9.83094 3.02378,-15.0685 0.62532,-6.92529 1.71721,-13.80234 3.3216,-20.57094 1.11418,-5.07346 1.82531,-10.24404 2.4658,-15.38062 0.22196,-0.78804 0.31785,-1.61901 0.64254,-2.37057 0.35113,-0.81278 1.45595,-1.51325 1.73145,-2.29506 0.11903,-0.33777 0.009,-0.71621 0.0137,-1.07432 0.007,-2.50968 -0.0438,-5.01907 -0.01,-7.52875 0.18812,-4.47651 0.45961,-8.94462 0.88113,-13.40658 0.77615,-7.57836 2.24974,-15.09816 2.41631,-22.7207 0.36369,-11.16852 1.37316,-22.29916 2.12992,-33.44533 0.39762,-6.76879 0.79096,-13.43938 0.54629,-20.21875 -0.0462,-1.28069 -1.24454,-3.13088 -0.17741,-3.84049 38.17505,-25.38559 38.01131,-35.71316 37.94605,-20.55903 0.0135,1.60693 0.0367,3.2152 0.11012,4.82051 0.0378,2.2505 -0.007,4.40368 -0.83731,6.55057 -2.46671,7.7666 -7.16499,14.69705 -9.52912,22.52221 -6.68666,15.96447 -13.55426,31.86956 -19.56608,48.10378 -1.02908,2.91609 -1.78181,5.39009 -1.96927,8.44972 -0.57116,2.80965 -3.29631,4.63318 -4.88129,6.94774 -12.46869,13.28073 -31.03563,25.08104 -49.77088,25.0223 -3.97905,0.0244 -7.95871,0.1148 -11.93467,0.1697 -2.84369,-0.12045 -5.67578,-0.39552 -8.45892,-1.02253 -6.06268,-1.44392 -11.96082,-3.38811 -17.38416,-6.53168 -3.87991,-1.90275 -8.03269,-4.34406 -12.46326,-4.0203 -12.74014,1.70714 -51.158413,41.16544 32.31704,-19.385 -0.56708,0.0714 -1.20815,-0.28731 -1.71455,-0.0223 -0.98215,0.51402 -0.1775,3.0193 -1.74059,2.83718 -0.25012,-0.0427 -0.56431,-0.30062 -0.75035,-0.12808 -0.59632,0.55306 0.42649,3.19119 0.048,3.95012 0.076,1.71149 0.25523,3.45866 -0.20094,5.12784 -1.13582,4.2502 -4.02924,7.68424 -5.55841,11.81878 -5.15069,13.12372 -10.71817,26.07709 -15.44464,39.36683 -2.13048,6.27799 -4.90276,12.80011 -4.54699,19.53964 -0.002,1.84327 0.0979,3.68872 0.0587,5.52738 -0.22408,2.29421 -0.39492,4.10713 -2.04133,5.89907 -2.1581,3.26974 0.57004,-0.42282 -1.93223,1.80446 -1.85791,1.65373 -2.93317,4.04875 -5.56921,4.90381 -4.7241,4.52545 -10.01112,8.34959 -14.79738,12.82387 -12.74188,10.57296 -34.899107,38.44061 -42.826691,18.99189 -0.01815,-0.0445 3.492814,-2.40834 3.051316,-3.28261 4.164776,-3.61099 8.357827,-7.18991 12.770659,-10.49846 4.13234,-3.26488 7.62602,-7.21857 11.337714,-10.94574 4.599689,-4.83386 9.188992,-9.70209 13.257272,-15.00014 2.32501,-3.34058 3.03207,-0.91755 2.86852,-4.55948 -0.0166,-2.55435 -0.0254,-5.12997 0.51271,-7.64214 1.44072,-7.57241 3.4079,-14.99044 5.76224,-22.33302 3.40442,-12.2771 8.10172,-24.10469 11.50427,-36.37632 2.19809,-12.95967 3.59929,-25.91985 2.97574,-39.1135 0.0992,-15.53533 0.13977,-31.08444 -0.56323,-46.60743 0,0 37.75718,-19.23824 37.75718,-19.23824 z"
       inkscape:connector-curvature="0" />
    <path
       style="opacity:0.31100015"
       id="path3338"
       d="m 335.48491,300.34463 c -6.2367,1.31837 -11.99301,4.05087 -17.99297,6.11311 -12.23006,6.44303 -26.33053,13.89935 31.99583,-18.24449 0.88669,-0.48866 -1.62329,1.21335 -2.38807,1.87677 -2.40747,2.08835 -4.54677,4.49 -6.72106,6.81203 -3.47417,3.81768 -6.52188,7.97148 -9.56841,12.1277 -3.07423,4.88445 -5.70252,10.06344 -8.04346,15.33708 -1.84768,4.17614 -2.92818,8.58055 -3.51214,13.09194 -2.0423,16.39748 10.36675,2.00001 -37.99946,19.67296 -1.03566,0.37843 0.46893,-2.15695 0.78338,-3.21378 0.38432,-1.29167 0.87385,-2.54967 1.31077,-3.82451 2.19887,-6.54825 5.20443,-12.77679 7.52544,-19.27754 1.28492,-3.5674 1.45772,-7.35058 1.99088,-11.06509 2.28571,-16.77873 4.65578,-33.54357 6.46162,-50.3824 0.90841,-8.71157 1.4715,-17.45315 1.7565,-26.20583 -0.0297,-6.63273 0.29957,-13.25967 0.49444,-19.88887 0.36878,-15.23463 0.0735,-30.4731 -0.1886,-45.70657 -0.42471,-4.68229 0.18329,-9.48018 -0.43042,-14.14923 48.43347,-25.20375 36.83089,-31.21056 38.04796,-12.15066 0.3023,4.73416 0.84796,9.45979 1.29727,14.18147 0.83586,7.95554 1.14179,15.94497 1.23924,23.93893 0.0223,9.46783 0.0289,18.93551 -0.0604,28.40302 -0.0238,10.65931 -0.004,21.31846 0.009,31.97771 0.0362,6.75496 0.24887,13.50935 0.20397,20.2644 -0.004,5.80782 -0.0523,11.61628 0.0212,17.42377 0.48798,4.93184 -0.53857,9.42341 -2.25067,14.00579 -2.4235,6.25067 -4.44896,12.64002 -6.61982,18.9819 -0.35994,2.63717 -2.60953,5.78714 -1.67987,8.45023 -12.836,5.34981 -25.38411,11.45085 -38.508,16.04942 -0.95127,0.33332 0.50579,-1.96199 0.92276,-2.87967 1.98752,-4.37422 5.5949,-7.96725 8.96867,-11.26913 4.49534,-4.56468 9.01648,-9.06308 13.97525,-13.12851 2.55396,-2.17251 5.38935,-3.95339 8.0468,-5.93827 2.24926,-2.60609 5.02034,-4.82239 7.95324,-6.69232 18.82713,-5.97021 33.32996,-22.09726 52.05104,-28.71259 5.31491,-1.56554 10.86672,-2.022 16.38033,-2.17116 2.87015,-0.118 5.74103,-0.0788 8.61214,-0.0666 3.3121,-0.10873 4.21624,-0.21837 6.50781,2.56441 1.99047,2.6476 2.49095,5.91771 2.76544,9.12946 0.0682,5.66867 0.007,11.33795 0.0226,17.00739 0.0631,3.65389 0.11571,7.30719 0.0786,10.96154 -0.39648,6.03722 -3.19787,11.53457 -5.44754,17.04993 -1.77863,3.35604 -2.82771,7.68406 -5.96798,10.07704 -9.92415,12.0953 -25.67577,26.83115 -41.14598,24.23151 -5.76605,-0.44396 -11.58303,-0.31322 -17.36808,-0.35418 -7.64963,-0.0692 -15.29992,-0.0395 -22.94923,0.0502 -4.90945,0.0915 -9.8199,-0.0139 -14.72969,-0.0362 -2.70641,-0.29918 -5.54829,0.39697 -8.24613,0.0483 -1.79143,-0.23151 -3.53189,-1.20921 -5.21364,-1.82448 -0.40161,-0.14574 -0.80322,-0.29147 -1.20484,-0.43721 0,0 35.32214,-23.82467 35.32214,-23.82467 l 0,0 c 0.38054,0.13902 0.76109,0.27804 1.14163,0.41706 3.9803,1.32947 8.21549,0.62415 12.34873,0.81134 4.9402,-0.0216 9.88146,-0.12836 14.82113,-0.0243 7.57263,0.11048 15.14643,0.16213 22.71983,0.11362 5.7144,-0.0324 11.70453,0.41435 17.28364,-0.85848 0.6599,-0.72007 0.31325,-0.41422 1.02149,-0.93806 -11.91003,6.92113 -23.82007,13.84227 -35.7301,20.7634 -0.60006,0.35212 1.42691,-0.25082 1.97246,-0.6826 0.31599,-0.25011 0.44367,-0.67289 0.66551,-1.00934 0.99228,-1.44454 2.16461,-1.48563 3.29756,-2.71966 1.56986,-1.70992 2.22715,-4.24591 3.56062,-6.10805 2.15371,-5.07613 4.65306,-10.08342 5.96577,-15.44859 -0.0292,-3.69236 0.0481,-7.38301 0.13191,-11.07436 0.0405,-5.54218 0.0888,-11.08585 -0.13927,-16.62529 -0.0896,-2.12395 0.006,-4.61251 -1.30067,-6.39558 -1.44482,-0.14118 -3.19716,0.54934 -4.73584,0.18057 -2.73805,-0.0504 -5.47912,-0.022 -8.21474,0.10547 -5.26174,0.40301 -10.53396,1.0909 -15.42107,3.21377 -15.15828,6.97325 -42.75491,24.82018 20.62706,-12.78752 -1.97301,1.28063 -4.65684,2.28627 -6.34373,3.94141 -0.33673,0.3304 -0.40006,0.88242 -0.74703,1.20206 -0.27714,0.2553 -0.69309,0.29588 -1.03964,0.44382 -0.23617,0.35354 -1.39882,2.13065 -1.65486,2.34646 -1.92402,1.62175 -4.86815,2.20891 -6.31855,4.55472 -5.52294,3.27899 -10.05274,7.98922 -14.38118,12.67695 -21.03455,18.38932 -1.33838,12.09986 -49.74011,30.88199 0.18305,0.23512 0.25232,0.73157 0.54913,0.70536 0.0667,-0.006 1.84263,-7.88101 2.28479,-7.98984 1.9988,-6.39727 4.40904,-12.66551 6.56063,-19.00107 1.29769,-4.26982 3.45913,-8.10249 2.81836,-12.74754 0.0726,-5.81471 0.0257,-11.63034 0.021,-17.44536 -0.0456,-6.82522 0.16997,-13.64984 0.20738,-20.47495 0.0173,-10.66764 0.0452,-21.33521 0.0369,-32.00293 -0.0787,-9.40574 -0.0271,-18.81197 -0.1669,-28.21716 -0.12958,-7.91378 -0.29492,-15.83188 -0.95734,-23.72303 -2.73866,-31.53746 -9.82207,-16.72494 35.90258,-40.79827 -0.5597,4.82465 -0.0478,9.74723 -0.42477,14.58308 -0.24697,15.28585 -0.5291,30.57726 -0.12711,45.86331 0.21526,6.53564 0.70852,13.08267 0.38148,19.62104 -0.36167,9.0482 -1.61565,18.02644 -2.63519,27.01675 -2.08542,16.61639 -4.81358,33.20339 -5.45366,49.95789 -0.46899,3.91873 -0.36589,7.93056 -1.58097,11.72997 -2.00922,6.72984 -5.58332,12.81612 -7.72767,19.49833 -0.43074,1.15995 -0.88599,2.31108 -1.29221,3.47984 -0.30878,0.88841 -0.048,2.20205 -0.85217,2.68986 -42.64654,25.86984 -39.05004,35.16454 -38.26096,17.81707 0.68356,-4.83356 1.47557,-9.70525 3.38803,-14.22964 2.11578,-5.57212 4.85154,-10.79537 7.58507,-16.08134 2.80672,-4.50136 6.13438,-8.58684 9.38524,-12.75023 13.81765,-15.06328 26.79071,-26.80021 49.47815,-32.78781 5.99836,-2.13279 11.95645,-4.34865 18.08201,-6.10467 0,0 -33.50045,26.02637 -33.50045,26.02637 z"
       inkscape:connector-curvature="0" />
    <path
       style="opacity:0.31100015"
       id="path3340"
       d="m 506.24542,303.15445 c -20.77704,12.91061 -86.01946,48.97354 -12.95349,7.41501 1.93792,-1.10225 -3.75412,2.4094 -5.56784,3.70592 -6.79841,4.80316 -11.69405,11.44001 -16.63241,18.00854 -5.28196,6.72398 -8.76809,14.13442 -10.62826,22.43154 -1.75179,10.80227 -1.83156,21.77595 -1.84725,32.69111 -0.0399,4.7941 0.23781,9.58258 0.31879,14.37349 0.35434,0.99894 -0.52924,3.48719 0.2319,4.09612 2.73906,-0.77378 6.30098,-0.23181 9.19928,-0.18464 6.79798,0.0584 13.59606,0.0279 20.39416,0.0147 2.76215,-0.20388 5.59897,0.45999 8.23734,-0.66214 0.69783,-0.2968 2.61147,-1.54263 1.95,-1.17178 -34.84606,19.53591 -44.03399,27.80418 -31.64778,17.05313 7.34039,-8.357 10.77505,-18.97996 13.49583,-29.55383 2.99303,-13.47183 3.32438,-27.31052 3.63972,-41.04769 0.30745,-21.64419 0.4957,-43.29052 0.59639,-64.93668 0.15254,-27.31342 0.18143,-54.61396 -0.89108,-81.90852 -0.50805,-17.95401 -2.45639,-35.82214 -4.54881,-53.64791 -0.54112,-4.79834 -1.08056,-9.5932 -1.42753,-14.40948 12.62139,-5.76446 24.81122,-12.5871 37.86418,-17.29336 1.15968,-0.41812 -0.11404,2.46299 -0.14939,3.69524 -0.0451,1.57059 -0.0617,3.14188 -0.0918,4.71283 -0.13777,7.19099 -0.23469,14.38025 -0.29405,21.57235 -0.0969,16.64101 -0.0312,33.28246 0.0637,49.92331 0.086,10.51516 0.21808,21.02979 0.33177,31.54467 0.0597,7.73858 -0.028,15.47743 -0.021,23.21626 0.0134,7.01869 0.10468,14.03717 0.0625,21.05583 -0.28939,8.52332 -0.24206,16.9847 1.37429,25.37749 1.16457,6.33358 3.57708,12.2162 6.59077,17.86349 6.49708,11.04852 13.50204,21.78849 20.20747,32.70984 4.01464,5.76248 7.63377,11.78808 11.88132,17.38603 3.298,3.15369 7.33468,5.44217 11.39411,7.47461 2.65694,1.45063 5.50597,2.2051 8.49639,2.50566 1.94588,-0.13427 3.89603,-0.12833 5.84519,-0.14854 1.85306,0.2698 2.51937,-0.74919 3.70697,-1.97664 -11.46876,6.57682 -22.80809,13.38469 -34.40629,19.73047 -1.76421,0.96525 2.8068,-2.88562 4.10082,-4.42499 3.40713,-3.94733 5.8843,-8.52854 8.8455,-12.78814 1.07677,-2.30567 2.42298,-4.23247 3.89828,-6.27299 1.08908,-1.05267 1.49014,-2.074 1.64273,-3.61555 -0.0561,-1.44442 -0.12789,-2.66787 0.529,-3.98116 0,0 39.71295,-15.79088 39.71295,-15.79088 l 0,0 c -0.99751,0.0631 -2.33765,-0.7673 -2.11921,0.59295 -0.0198,1.85071 0.21049,4.10094 -0.65076,5.74084 -1.46504,2.24711 -3.19512,3.64016 -4.19359,6.14457 -1.11096,2.08518 -2.64712,3.69204 -3.86289,5.70136 -1.5698,2.59441 -2.71091,5.44005 -5.04419,7.52768 -9.94965,15.36705 -28.11254,28.61272 -46.60912,28.47431 -2.14152,0.004 -4.30653,0.10285 -6.39205,-0.48562 -3.13541,-0.87302 -6.12525,-2.10162 -8.94267,-3.74721 -4.5018,-2.53971 -9.08206,-5.14768 -12.52397,-9.08961 -3.93006,-5.93451 -7.49294,-12.08488 -11.30296,-18.09644 -6.49581,-11.10156 -13.52093,-21.87448 -20.68505,-32.55396 -3.53789,-5.92557 -5.97698,-12.23681 -7.17102,-19.06627 -1.79046,-8.58943 -2.03402,-17.29036 -1.89696,-26.04592 -0.0425,-7.03991 0.0496,-14.07965 0.0626,-21.11959 0.007,-7.73176 -0.0806,-15.46353 -0.0206,-23.19506 0.1138,-10.6271 0.24559,-21.25395 0.33001,-31.88134 0.091,-16.65695 0.15178,-33.31457 0.0357,-49.97156 -0.0678,-7.08757 -0.17637,-14.17183 -0.32397,-21.25812 -0.0321,-1.54116 -0.0512,-3.08265 -0.0962,-4.6235 -0.0347,-1.19142 -1.13669,-2.9149 -0.14287,-3.57292 12.09746,-8.00986 25.2606,-14.28031 37.8909,-21.42047 -0.0557,4.86585 0.2674,9.72836 0.54462,14.58345 1.15638,18.17321 2.89594,36.31743 3.31759,54.52981 0.94653,27.36252 0.80239,54.72264 0.83381,82.09935 0.15045,21.48919 0.5246,42.97689 0.49292,64.46704 -0.16266,13.96213 -0.25178,28.02169 -3.04086,41.76472 -2.46575,10.94461 -5.58847,21.85723 -12.06469,31.18333 -11.61519,16.39039 -31.83109,27.03098 -51.51031,25.90964 -6.84669,0.0128 -13.69343,0.0464 -20.54001,-0.006 -4.04962,-0.0688 -8.64091,0.38835 -11.66546,-2.79498 -1.44988,-2.1471 -1.68558,-3.99571 -1.45427,-6.53856 -0.005,-4.91582 0.2049,-9.83234 0.24189,-14.74791 0.20047,-11.13872 0.3885,-22.30521 1.62475,-33.38663 1.42319,-9.69225 3.91502,-16.18463 9.71428,-24.14841 4.99169,-6.60307 9.39913,-13.75069 15.97395,-18.94785 13.54579,-11.30725 27.52043,-16.98836 44.48139,-26.68282 1.08899,-0.62244 4.39345,-2.42204 3.30967,-1.79058 -10.86358,6.32959 -21.77496,12.57678 -32.65049,18.8858 -1.02432,0.59422 2.06441,-1.16082 3.09661,-1.74124 0,0 39.44914,-15.43533 39.44914,-15.43533 z"
       inkscape:connector-curvature="0" />
    <path
       style="opacity:0.31100015"
       id="path3342"
       d="m 650.30716,136.564 c -0.55475,14.36255 -0.54017,28.74093 -0.57604,43.11213 -0.10792,16.91838 -0.0285,33.83762 0.17032,50.75502 0.11876,11.58251 0.11892,23.16575 0.12022,34.74873 -0.43337,12.54367 1.39469,24.97075 3.18705,37.34325 1.35416,9.15392 4.26664,17.93595 6.43848,26.9 1.022,5.20056 1.70125,10.40692 3.36579,15.45185 2.88559,7.99986 7.2651,15.26301 11.56822,22.54686 2.25468,3.91479 4.58381,7.77543 7.27628,11.40534 0,0 -36.62944,21.55523 -36.62944,21.55523 l 0,0 c -2.52136,-3.87829 -4.85648,-7.85209 -6.96619,-11.97175 -4.3396,-7.54941 -8.88647,-14.99904 -12.28045,-23.0465 -1.9593,-5.1925 -2.73445,-10.49712 -3.42116,-15.98738 -1.94833,-9.17979 -4.8703,-18.13103 -6.18307,-27.44926 -1.6302,-12.54886 -3.79531,-25.09918 -3.54168,-37.80034 10e-4,-11.62381 0.002,-23.24788 0.12021,-34.87123 0.19714,-16.97527 0.27889,-33.95236 0.17032,-50.9286 -0.0355,-14.17543 -0.0139,-28.35868 -0.57604,-42.52511 0,0 37.75718,-19.23824 37.75718,-19.23824 z"
       inkscape:connector-curvature="0" />
    <path
       style="opacity:0.31100015"
       id="path3344"
       d="m 692.57369,448.532 c -4.20639,8.4859 -9.37877,16.41366 -14.45627,24.38941 -5.63763,8.93266 -8.05678,19.05017 -9.61137,29.35689 -0.93997,6.94049 -1.11121,13.94615 -1.16567,20.93914 0.15783,5.2156 -0.30117,10.47575 0.28108,15.66774 1.27326,5.62471 6.59607,5.74348 11.42541,6.36475 7.99768,0.67714 16.0368,0.63852 24.056,0.52994 5.20178,-0.14056 10.40462,-0.0943 15.60731,-0.13933 4.26998,0.045 8.45531,-1.22346 11.8207,-3.8095 -85.36886,41.54401 -38.42169,26.84052 -30.59883,16.50571 1.92938,-7.72882 1.4579,-16.01286 1.46932,-23.94514 0.0411,-6.28189 -0.21084,-12.56006 -0.30678,-18.83971 -0.0957,-2.55802 -0.0932,-5.11666 -0.0538,-7.67566 -0.005,-2.90971 0.0264,-5.81925 -0.0261,-8.72869 -0.1069,-1.70755 0.60753,-3.48008 -0.8468,-4.52615 -3.21042,-0.80759 -6.21487,-2.07221 -9.44645,-2.8569 -3.35838,-0.92013 -6.80279,-1.15486 -10.264,-1.21857 -4.57387,-0.46893 -9.07226,-1.76556 -13.68001,-2.36401 -2.75012,-0.37482 -5.52259,-0.49641 -8.29544,-0.47873 -1.55461,0.0349 -3.10831,0.0535 -4.663,0.0608 -1.59334,-0.0163 -3.18742,0.0251 -4.78068,0.002 -0.982,-0.002 -1.96327,0.0175 -2.94514,0.002 0,0 34.543,-25.09737 34.543,-25.09737 l 0,0 c 0.97893,-0.0149 1.95723,0.003 2.93628,2.9e-4 1.593,-0.0249 3.18671,0.0102 4.77975,-0.0199 1.58872,-0.006 3.17738,-0.0139 4.76421,0.0898 2.79299,0.23267 5.57818,0.53783 8.33703,1.04401 4.4855,0.78874 8.93039,1.99474 13.51482,1.94625 3.63704,0.28413 7.2006,0.98203 10.69425,2.0462 3.78071,1.14251 7.8274,2.05336 10.89817,4.66769 1.90758,2.28726 2.78797,4.34777 2.42405,7.35597 -0.0519,2.91735 -0.0221,5.83478 -0.0251,8.75238 0.0426,2.56747 0.0489,5.13463 -0.0242,7.70174 -0.0543,6.38494 -0.26108,12.76888 -0.24818,19.15483 -0.0464,8.30123 0.0946,16.60882 -0.18503,24.9053 -0.13357,0.90626 -0.25117,2.35182 -0.71862,3.20766 -7.56432,13.84928 -56.29214,-0.35325 -40.32671,25.03003 -4.12824,1.607 -8.58932,2.12665 -13.00198,1.99473 -5.15801,-0.007 -10.3154,0.1148 -15.4735,0.0243 -8.15132,-0.10837 -16.34379,-0.0491 -24.43956,-1.12204 -6.69378,-1.37305 -12.36235,-3.65669 -14.38477,-10.7941 -0.91173,-5.35982 -0.34714,-10.83867 -0.52896,-16.25902 0.0532,-7.2488 0.44349,-14.49142 1.36199,-21.68694 1.52974,-10.70605 3.53792,-21.2854 8.71668,-30.92556 5.09076,-7.69995 10.4278,-15.34034 14.24032,-23.7765 0,0 38.62653,-17.47586 38.62653,-17.47586 z"
       inkscape:connector-curvature="0" />
    <path
       style="opacity:0.31100015"
       id="path3346"
       d="m 180.99313,614.31001 c -7.42887,9.53798 -13.05984,20.28398 -18.3372,31.11312 -3.7934,7.63295 -6.91512,15.42524 -8.51954,23.80337 -1.14488,7.40374 -1.16168,14.92074 -1.17384,22.39452 0.48621,6.04772 -0.73508,12.36383 0.58195,18.31352 3.6187,5.07132 10.40232,7.19644 16.20934,8.71805 6.60529,1.26956 13.35034,1.35029 20.0522,1.39776 6.12795,-0.28879 12.38824,0.60953 18.42214,-0.63141 -2.82803,2.8551 11.57919,-6.45103 7.56735,-4.16702 -63.29521,36.0351 -40.07529,26.02861 -30.0768,16.27666 2.27994,-2.58242 3.99681,-5.59241 5.65364,-8.59762 0.86709,-1.86541 0.94912,-3.89206 1.08023,-5.90365 0.0353,-4.1658 0.19318,-8.32829 0.26821,-12.49405 0.0398,-7.60872 0.0363,-15.21888 -0.14892,-22.82578 -0.10072,-2.89085 0.43236,-5.83315 -1.15789,-8.36618 -2.44464,-3.42644 -5.7589,-5.9546 -9.31697,-8.12633 -3.75192,-3.08117 -8.24725,-5.06904 -12.67475,-6.97418 -4.3596,-1.47944 -8.82899,-2.68928 -13.36528,-3.56799 -5.3445,-0.90613 -10.76282,-1.18474 -16.17382,-1.28123 -2.44248,-0.0413 -4.88433,0.0305 -7.32645,0.0424 0,0 34.47038,-25.05457 34.47038,-25.05457 l 0,0 c 2.42181,0.002 4.84451,0.0829 7.2626,0.21433 5.51913,0.32376 11.03461,0.82891 16.4557,1.96167 4.75421,1.08005 9.59726,2.12516 14.00829,4.26162 4.50904,2.17559 9.01099,4.36721 12.92813,7.54245 3.93088,2.67035 7.77923,5.57609 10.48962,9.55064 2.17034,3.39013 2.51035,6.59433 2.11421,10.58005 -0.17807,7.65053 -0.18088,15.30418 -0.11929,22.95627 0.0882,4.09327 0.27924,8.1819 0.33427,12.27518 0.063,2.40065 -0.0971,4.84841 -0.54929,7.20217 -0.87438,3.80531 -3.43592,6.76351 -5.16986,10.16824 -12.16176,15.43223 -31.73459,24.59324 -50.4474,29.5954 -6.23298,0.30824 -12.48254,0.13062 -18.72123,0.11985 -6.94208,-0.17847 -13.9348,-0.56569 -20.67255,-2.38722 -7.11306,-2.4124 -14.59852,-5.58059 -18.5866,-12.30555 -1.84291,-6.2489 -0.56666,-12.92756 -0.92114,-19.38454 0.0314,-7.68848 -0.0132,-15.39639 0.86605,-23.04752 1.42914,-8.84364 4.13279,-17.15304 8.44436,-25.05216 5.23705,-10.83642 10.93486,-21.40479 17.24406,-31.65539 0,0 39.00609,-16.66489 39.00609,-16.66489 z"
       inkscape:connector-curvature="0" />
    <path
       style="opacity:0.31100015"
       id="path3348"
       d="m 303.57831,617.39226 c -5.19522,5.13496 -9.55407,11.00747 -14.02942,16.75523 -3.2877,4.05729 -5.25594,8.6776 -6.4859,13.70428 -1.32994,7.45783 -1.39324,15.06567 -1.48195,22.61863 -0.0795,7.14736 -4.2e-4,14.29352 0.0846,21.44013 0.0839,4.19948 0.12015,8.40043 0.1039,12.60075 0.36585,5.05165 5.89026,7.73392 9.89412,9.81624 4.67225,2.11973 9.71531,2.627 14.77244,2.79514 9.74547,0.16461 19.48354,0.45533 29.21183,-0.21488 8.50933,-0.78453 17.32345,-2.01706 25.00895,-5.93595 13.24148,-8.11449 -0.39681,0.26548 -33.09018,18.93468 -0.44996,0.25694 0.87576,-0.55473 1.29989,-0.85238 0.84869,-0.59559 1.47947,-1.24806 2.42482,-1.67101 3.8596,-5.24201 4.90581,-11.71064 6.305,-17.98697 2.1575,-10.08904 2.98863,-20.38225 3.43859,-30.66851 0.15762,-5.31204 0.20934,-10.63074 0.0755,-15.94401 0.33502,-5.02448 -0.36564,-6.15655 -4.05142,-9.46653 -4.83363,-3.48736 -10.10454,-6.32349 -15.47792,-8.8799 -5.5238,-2.122 -11.34434,-3.22175 -16.98108,-4.96908 -5.20787,-0.81074 -9.71987,-3.55106 -14.60317,-5.26767 -1.84275,-0.81385 -3.62964,-0.89722 -5.58409,-0.85054 -1.59599,0.0887 -3.19334,0.10736 -4.79102,0.12223 -1.50345,0.0252 -3.00784,0.0265 -4.51147,0.004 -1.75637,-0.0293 -0.81844,-0.015 -2.81379,-0.042 0,0 34.40856,-25.00087 34.40856,-25.00087 l 0,0 c 2.07084,-0.0283 1.09596,-0.013 2.92464,-0.0446 1.50305,-0.0262 3.00638,-0.0328 4.50954,-0.0388 1.67405,-0.0124 3.35331,-0.0435 5.01893,0.16569 2.15427,0.36607 4.16408,1.18143 6.16175,2.05304 4.55516,2.09373 9.1539,3.97854 14.07727,5.07064 5.92491,1.54901 11.95805,2.92661 17.52391,5.55224 5.5639,2.9295 11.14406,5.91621 16.06402,9.87155 3.8479,3.52715 6.57613,6.93971 5.99275,12.41137 -0.0993,5.45389 -0.10557,10.90943 -0.40467,16.35817 -0.57133,10.5181 -1.53198,21.03119 -3.41759,31.40348 -0.71249,3.54982 -1.48981,7.08682 -2.16337,10.64423 -0.4651,2.45645 -0.47173,6.45546 -2.74679,8.12026 -0.31107,1.70527 -1.57461,3.45259 -3.13675,4.38201 -35.98473,21.40958 -24.46835,16.59404 -39.67298,22.82471 -8.11695,2.77634 -16.75266,3.82128 -25.28078,4.32078 -10.04106,0.43058 -20.11258,0.52175 -30.1593,0.27474 -5.4816,-0.52677 -10.83109,-1.755 -15.7,-4.44135 -5.29292,-3.16561 -11.21729,-7.05329 -12.35284,-13.57365 -0.0211,-4.22568 0.006,-8.45187 0.0641,-12.67714 0.0491,-7.19439 0.0724,-14.38838 0.0755,-21.58292 0.0713,-7.7538 0.0953,-15.53649 1.03128,-23.24495 0.81605,-5.53801 2.2034,-10.86539 5.64098,-15.4006 4.26379,-5.98177 9.13116,-11.50042 13.67798,-17.27504 0,0 39.14568,-16.21467 39.14568,-16.21467 z"
       inkscape:connector-curvature="0" />
    <path
       style="opacity:0.31100015"
       id="path3350"
       d="m 191.09684,831.01988 c 5.25786,4.58147 10.77842,8.87273 16.57893,12.75551 5.26901,3.86711 11.43783,5.99354 17.28519,8.76675 4.80269,2.25034 9.8718,3.85298 15.15022,4.4042 6.31753,0.2789 12.64416,0.24307 18.96641,0.26863 6.60191,-10e-4 13.20325,-0.10719 19.80487,-0.15505 4.35606,-0.0398 8.71203,-0.028 13.0682,-0.0122 4.53148,0.039 9.06282,-0.0183 13.59424,-0.0245 3.35083,0.45822 5.97961,-0.8211 9.09504,-1.76849 5.61277,-2.24907 10.56674,-5.66973 16.26319,-7.72212 2.07341,-1.37323 4.37091,-2.33255 6.6167,-3.37624 0.52913,-0.2459 2.09426,-1.02596 1.58931,-0.73359 -36.68925,21.24406 -45.9769,28.42907 -34.09793,19.34222 2.97847,-1.49977 4.65329,-4.07203 7.03092,-6.40345 5.51147,-4.69351 9.96513,-10.38136 14.11741,-16.2679 3.43642,-4.87388 6.36638,-10.06035 9.29094,-15.24761 1.16578,-1.6821 1.90113,-3.50955 2.56817,-5.42055 0.19369,-1.34904 0.17623,-2.71996 0.14389,-4.07954 0.002,-0.30834 0.003,-0.61667 0.005,-0.925 0,0 38.00304,-19.41425 38.00304,-19.41425 l 0,0 c 0.008,0.2957 0.0161,0.5914 0.0242,0.88709 0.0109,1.52325 0.0963,3.04435 0.0669,4.56821 0.0737,2.47468 -0.71559,5.07586 -2.03057,7.14898 -3.17633,5.22007 -5.9989,10.63523 -9.53643,15.62862 -3.8793,6.11465 -8.16146,12.13559 -13.5136,17.05126 -1.13463,1.01983 -2.46249,1.83014 -3.50169,2.94705 -1.25541,1.34929 -0.92296,3.28702 -3.08575,3.86977 -14.84512,10.0897 -30.48218,19.24354 -46.87978,26.58273 -5.53475,2.59816 -10.7958,5.90803 -16.76001,7.47737 -3.25059,0.83942 -6.41091,1.04484 -9.76843,0.81891 -4.50839,-0.006 -9.01671,-0.0646 -13.52518,-0.0249 -4.34901,0.0166 -8.69787,0.0303 -13.04685,0.007 -6.50915,-0.0198 -13.01834,-0.0785 -19.52757,-0.0528 -6.56972,0.0381 -13.19214,0.26999 -19.72185,-0.57244 -5.39253,-1.173 -10.548,-3.14242 -15.51467,-5.54228 -6.14676,-2.75645 -12.43557,-5.27679 -17.90352,-9.30339 -5.62863,-4.25755 -11.08863,-8.72624 -16.76781,-12.91668 0,0 35.9189,-22.56161 35.9189,-22.56161 z"
       inkscape:connector-curvature="0" />
    <path
       style="opacity:0.31100015"
       id="path3352"
       d="m 249.19546,549.27271 c -20.74705,5.48946 -41.40129,11.30585 -61.98292,17.38239 -6.348,2.06492 -12.98175,3.21564 -19.21898,5.63671 -3.86495,1.50024 -7.49924,3.64145 -11.23657,5.42562 -12.9138,6.77647 -32.4704,17.89695 26.10421,-15.27427 1.2066,-0.68331 -2.37167,1.43902 -3.52644,2.20668 -1.49571,0.99429 -5.25686,3.73851 -6.74355,4.81477 -4.39741,3.39536 -9.23233,6.19688 -13.55753,9.68061 -2.78118,2.17174 -5.41339,4.52457 -8.15744,6.78999 -5.49148,5.1341 -9.78635,11.29483 -13.87232,17.55756 -5.38303,8.5558 -8.42279,18.01767 -10.40706,27.85013 -2.57518,11.87472 -3.90442,23.93238 -4.6451,36.04302 -0.55238,10.65489 -0.53477,21.32562 -0.44585,31.99064 -3.9e-4,9.31804 -8.5e-4,18.63599 0.001,27.95402 0.0272,8.95721 0.0627,17.91454 0.0486,26.87182 -0.55883,9.73184 1.69637,19.14174 3.84101,28.5377 2.33971,11.00017 4.39058,22.05818 7.07704,32.98026 1.60163,7.69066 3.96567,15.08942 7.32162,22.18171 4.37648,9.10838 9.13758,17.98087 14.84006,26.32758 4.76241,5.70846 9.21993,11.6118 15.19423,16.09902 9.97818,5.72653 20.86401,9.85358 31.86031,13.15952 10.4875,3.06812 21.13384,4.99058 32.00528,5.93778 10.70893,0.75515 21.44928,0.68331 32.17746,0.67691 7.86835,-0.0475 15.73677,-0.0726 23.60517,-0.11369 6.84099,-0.0132 13.68203,-0.0175 20.52312,-0.0305 7.19636,0.006 14.19636,-2.78878 20.78332,-5.49092 8.91417,-3.55534 17.71982,-7.29323 26.20224,-11.80861 -62.14104,37.77583 -29.41121,16.90509 -15.62652,7.22807 5.41937,-4.18236 10.65382,-8.60215 15.74497,-13.17645 7.86256,-7.41063 10.67654,-17.64109 13.43554,-27.73845 3.49399,-15.37671 4.45989,-31.16178 4.95431,-46.87627 0.25956,-8.34011 0.14975,-16.68493 0.0645,-25.02678 -0.0737,-7.3848 -0.005,-14.7701 0.0433,-22.15489 0.20924,-12.54509 0.46907,-25.04832 -0.81211,-37.54152 -1.3865,-12.59534 -4.17917,-24.95865 -7.75451,-37.09663 -3.0706,-8.53851 -7.21697,-16.63123 -11.6821,-24.51366 -4.43447,-7.3728 -10.3787,-13.67892 -15.69072,-20.41057 -6.25688,-8.57015 -11.60185,-17.74825 -17.18024,-26.76046 -4.25955,-6.50341 -7.99213,-13.31035 -12.00976,-19.95871 -4.31524,-7.05238 -10.52115,-12.47859 -16.60629,-17.94195 -5.08479,-4.91292 -10.73412,-9.18827 -16.02992,-13.83533 -4.94642,-2.598 -10.23726,-4.62034 -15.53172,-6.42656 -6.03872,-1.11017 -11.79139,-3.21964 -17.70976,-4.79198 -4.16143,-0.69175 -8.13886,-2.11341 -12.30115,-2.91148 -3.30344,-0.52922 -6.63663,-0.73012 -9.97751,-0.75114 -0.90099,0.009 -1.80189,0.0245 -2.70277,0.0402 0,0 34.53524,-25.07065 34.53524,-25.07065 l 0,0 c 0.92192,0.0231 1.84548,0.0351 2.76399,0.12633 3.43585,0.28156 6.85655,0.72317 10.22464,1.47656 4.16077,1.03069 8.32968,2.02896 12.46445,3.13868 5.84282,1.84655 11.69342,3.60497 17.62936,5.13277 5.70887,2.07308 11.65026,4.01703 16.57932,7.66153 5.29983,4.62272 10.4525,9.39991 15.65122,14.14038 6.37981,5.75806 12.96717,11.44116 17.51835,18.84134 3.99794,6.63777 7.46317,13.58821 11.60657,20.14632 5.45659,8.88909 10.79007,17.889 17.08657,26.2213 5.53877,6.82728 11.53655,13.36893 16.01805,20.97405 4.69442,8.13638 8.86464,16.59181 12.01524,25.45246 3.60974,12.39586 6.13798,25.09549 7.76231,37.90272 1.55805,12.53198 1.48398,25.08994 1.51416,37.70431 0.0649,7.345 0.15772,14.68998 0.16492,22.03527 -0.0193,8.48334 -0.0971,16.96788 -0.44677,25.44514 -0.89452,15.99162 -2.17964,31.9916 -4.90124,47.7896 -2.41309,10.41825 -4.55897,21.14876 -11.70227,29.46692 -4.74368,5.07462 -10.40843,9.16546 -15.60721,13.74089 -17.26342,13.59922 -37.60868,23.55256 -56.28135,34.57411 -8.65417,4.19991 -17.49712,7.92714 -26.44851,11.44786 -7.06162,2.53712 -14.29713,4.87053 -21.90294,4.40348 -6.82383,-0.0101 -13.64768,-0.01 -20.47141,0.003 -7.81621,-0.008 -15.63241,0.0264 -23.44849,-0.0281 -10.76052,-0.0775 -21.5306,-0.30434 -32.26452,-1.10151 -11.00446,-1.19895 -21.81517,-3.36327 -32.37582,-6.73829 -11.3599,-3.76619 -22.83344,-7.9222 -33.11103,-14.11388 -6.14754,-4.92306 -10.87545,-11.15423 -15.65096,-17.37794 -5.70699,-8.56754 -10.5766,-17.61127 -15.28451,-26.76029 -3.622313,-7.31708 -6.225906,-14.98669 -7.668302,-23.04409 -2.473687,-10.98836 -4.457282,-22.07083 -6.909127,-33.06568 -2.359578,-9.62863 -5.008957,-19.24942 -4.514932,-29.28156 -0.01573,-8.96866 0.01753,-17.93735 0.02739,-26.906 -0.01773,-9.3088 -0.05563,-18.6174 -0.07464,-27.92618 0.110229,-10.78028 0.169087,-21.56474 0.604202,-32.33785 0.674716,-12.26265 1.870615,-24.49328 4.447958,-36.52239 1.704377,-10.19306 4.206087,-20.10132 9.426686,-29.13794 3.883715,-6.43516 7.999825,-12.79243 13.139775,-18.30643 1.52394,-1.78199 3.04535,-2.68491 4.75716,-4.15087 1.13885,-0.97529 1.39407,-2.60803 3.14895,-2.82816 4.25572,-3.95975 9.16186,-6.83433 13.84304,-10.26088 3.40929,-2.32927 6.56849,-5.25073 10.12703,-7.33601 15.23742,-8.92905 30.20943,-18.26382 46.04881,-26.04242 9.5751,-4.56223 19.61981,-7.36866 29.94219,-9.79595 21.02516,-5.92638 42.22815,-11.34318 62.88168,-18.48968 0,0 -33.28372,26.05614 -33.28372,26.05614 z"
       inkscape:connector-curvature="0" />
  </g>
</svg>
